<svg width="414" height="28" viewBox="0 0 414 28" fill="none" xmlns="http://www.w3.org/2000/svg">
<path d="M0.844 27V1.368H4.228V23.076H4.3L16.864 1.368H21.148V27H17.764V5.22H17.692L5.092 27H0.844ZM50.3325 17.316C50.0445 20.556 48.9165 23.088 46.9485 24.912C45.0045 26.712 42.4365 27.612 39.2445 27.612C35.5965 27.612 32.7045 26.412 30.5685 24.012C28.4325 21.588 27.3645 18.324 27.3645 14.22C27.3645 10.38 28.4325 7.188 30.5685 4.644C32.7285 2.076 35.7045 0.791998 39.4965 0.791998C42.2085 0.791998 44.5965 1.524 46.6605 2.988C48.7245 4.452 49.8765 6.48 50.1165 9.072H46.7325C46.3485 7.392 45.5085 6.084 44.2125 5.148C42.9165 4.188 41.3205 3.708 39.4245 3.708C36.5685 3.708 34.4085 4.716 32.9445 6.732C31.5045 8.748 30.7845 11.232 30.7845 14.184C30.7845 17.448 31.5525 20.016 33.0885 21.888C34.6245 23.76 36.7245 24.696 39.3885 24.696C41.5725 24.696 43.3125 24.072 44.6085 22.824C45.9045 21.552 46.6845 19.716 46.9485 17.316H50.3325ZM73.5561 1.368V4.32H64.9521V27H61.5681V4.32H52.9641V1.368H73.5561ZM88.4112 0.755999C92.2992 0.755999 95.3232 1.98 97.4832 4.428C99.6432 6.852 100.723 10.032 100.723 13.968C100.723 17.928 99.6552 21.192 97.5192 23.76C95.3832 26.328 92.3592 27.612 88.4472 27.612C86.4552 27.612 84.6672 27.252 83.0832 26.532C81.4992 25.812 80.2032 24.816 79.1952 23.544C78.2112 22.272 77.4552 20.82 76.9272 19.188C76.4232 17.556 76.1712 15.792 76.1712 13.896C76.1712 9.888 77.2752 6.696 79.4832 4.32C81.7152 1.944 84.6912 0.755999 88.4112 0.755999ZM88.4112 3.708C85.5552 3.708 83.3592 4.716 81.8232 6.732C80.3112 8.724 79.5552 11.196 79.5552 14.148C79.5552 17.364 80.3592 19.932 81.9672 21.852C83.5992 23.748 85.7712 24.696 88.4832 24.696C91.1712 24.696 93.3192 23.736 94.9272 21.816C96.5352 19.896 97.3392 17.34 97.3392 14.148C97.3392 10.98 96.5232 8.448 94.8912 6.552C93.2832 4.656 91.1232 3.708 88.4112 3.708ZM106.907 1.368H117.455C120.071 1.368 122.147 1.968 123.683 3.168C125.219 4.344 125.987 6.204 125.987 8.748C125.987 13.908 123.071 16.488 117.239 16.488H110.291V27H106.907V1.368ZM110.291 4.284V13.644H116.807C118.631 13.644 120.047 13.308 121.055 12.636C122.087 11.94 122.603 10.716 122.603 8.964C122.603 7.98 122.435 7.164 122.099 6.516C121.787 5.868 121.319 5.388 120.695 5.076C120.071 4.764 119.423 4.56 118.751 4.464C118.079 4.344 117.275 4.284 116.339 4.284H110.291ZM131.907 27V1.368H135.291V23.076H135.363L147.927 1.368H152.211V27H148.827V5.22H148.755L136.155 27H131.907ZM169.335 16.056L160.875 27H156.699L165.267 15.948C163.227 15.684 161.655 14.94 160.551 13.716C159.447 12.492 158.895 10.824 158.895 8.712C158.895 6.336 159.603 4.524 161.019 3.276C162.459 2.004 164.451 1.368 166.995 1.368H178.011V27H174.627V16.056H169.335ZM174.627 13.176V4.248H168.147C164.259 4.248 162.315 5.736 162.315 8.712C162.315 11.688 164.259 13.176 168.147 13.176H174.627ZM218.126 1.368L207.326 11.664L218.558 27H214.238L204.95 13.968L200.702 18V27H197.318V1.368H200.702V14.076L213.698 1.368H218.126ZM233.297 0.755999C237.185 0.755999 240.209 1.98 242.369 4.428C244.529 6.852 245.609 10.032 245.609 13.968C245.609 17.928 244.541 21.192 242.405 23.76C240.269 26.328 237.245 27.612 233.333 27.612C231.341 27.612 229.553 27.252 227.969 26.532C226.385 25.812 225.089 24.816 224.081 23.544C223.097 22.272 222.341 20.82 221.813 19.188C221.309 17.556 221.057 15.792 221.057 13.896C221.057 9.888 222.161 6.696 224.369 4.32C226.601 1.944 229.577 0.755999 233.297 0.755999ZM233.297 3.708C230.441 3.708 228.245 4.716 226.709 6.732C225.197 8.724 224.441 11.196 224.441 14.148C224.441 17.364 225.245 19.932 226.853 21.852C228.485 23.748 230.657 24.696 233.369 24.696C236.057 24.696 238.205 23.736 239.813 21.816C241.421 19.896 242.225 17.34 242.225 14.148C242.225 10.98 241.409 8.448 239.777 6.552C238.169 4.656 236.009 3.708 233.297 3.708ZM251.685 1.368H256.365L264.609 23.076L272.565 1.368H277.281V27H274.077V5.616L266.049 27H263.097L254.925 5.616V27H251.685V1.368ZM305.112 1.368V27H301.728V4.32H288.192V27H284.808V1.368H305.112ZM323.353 1.368L333.361 27H329.581L326.737 19.152H315.973L313.057 27H309.457L319.537 1.368H323.353ZM325.729 16.452L321.373 4.608L316.945 16.452H325.729ZM358.036 1.368V27H354.652V15.012H341.116V27H337.732V1.368H341.116V12.06H354.652V1.368H358.036ZM365.513 27V1.368H368.897V23.076H368.969L381.533 1.368H385.817V27H382.433V5.22H382.361L369.761 27H365.513ZM393.293 27V1.368H396.677V23.076H396.749L409.313 1.368H413.597V27H410.213V5.22H410.141L397.541 27H393.293Z" fill="white"/>
</svg>
